<?xml version="1.0" encoding="UTF-8"?>
<svg version="1.1" xmlns="http://www.w3.org/2000/svg" width="2000" height="582">
<path d="M0 0 C1.39033699 -0.01482674 1.39033699 -0.01482674 2.8087616 -0.029953 C41.43564578 -0.35709595 41.43564578 -0.35709595 58.28125 4.23828125 C59.30057617 4.50672852 60.31990234 4.77517578 61.37011719 5.05175781 C89.32259586 12.5706998 114.94751324 24.71893646 137.28125 43.23828125 C137.87454102 43.73005859 138.46783203 44.22183594 139.07910156 44.72851562 C149.59815592 53.50265097 158.74515829 62.4808498 167.28125 73.23828125 C168.50908203 74.75808594 168.50908203 74.75808594 169.76171875 76.30859375 C190.92213073 102.81972556 208.56188741 140.03208158 209.59375 174.30078125 C209.63113281 175.11675781 209.66851562 175.93273437 209.70703125 176.7734375 C209.11375662 180.20789889 207.7008203 181.76177989 205.28125 184.23828125 C169.03476185 207.50763167 105.0947533 204.35623113 63.34375 200.42578125 C62.58239746 200.35584961 61.82104492 200.28591797 61.03662109 200.21386719 C56.59014304 199.69367796 53.02611378 198.72183473 49.28125 196.23828125 C47.11989451 192.17242983 47.03039033 188.60255591 47.02587891 184.04882812 C47.02044823 182.99176414 47.02044823 182.99176414 47.01490784 181.91334534 C47.00803786 180.38996165 47.00550389 178.86655348 47.00685501 177.34315491 C47.00782332 174.93005831 46.99484329 172.51740338 46.97787476 170.10437012 C46.93168766 163.24620947 46.90699057 156.38809609 46.90039062 149.52978516 C46.89537378 145.32873665 46.87111985 141.12815252 46.83506393 136.92726135 C46.82527394 135.32933847 46.82292965 133.73135166 46.82823563 132.13340759 C46.83531322 129.8976784 46.81801358 127.66333283 46.79541016 125.42773438 C46.79256012 124.1570813 46.78971008 122.88642822 46.78677368 121.57727051 C46.19393402 117.66155828 45.05760205 116.01050201 42.28125 113.23828125 C37.97714946 111.49337563 34.51265546 112.61081761 30.28125 114.23828125 C29.3682231 116.97736194 29.15217152 118.59343696 29.14080811 121.41320801 C29.13509796 122.26282608 29.12938782 123.11244415 29.12350464 123.98780823 C29.12238678 124.91673386 29.12126892 125.84565948 29.12011719 126.80273438 C29.11515228 127.7834642 29.11018738 128.76419403 29.10507202 129.77464294 C29.09045124 133.02294614 29.0836496 136.27120054 29.078125 139.51953125 C29.07237483 141.77250165 29.06661708 144.02547202 29.06085205 146.27844238 C29.05034323 151.00285063 29.04449933 155.72724186 29.04101562 160.45166016 C29.03552183 166.51488116 29.0114743 172.57787861 28.98304367 178.64102936 C28.96445396 183.29405381 28.95921372 187.94702393 28.95767975 192.6000824 C28.95464594 194.83606696 28.94659306 197.0720504 28.93349457 199.30799866 C28.91650586 202.43011709 28.91829644 205.55168268 28.92480469 208.67382812 C28.91098251 210.06721657 28.91098251 210.06721657 28.8968811 211.48875427 C28.90245026 212.33837234 28.90801941 213.18799042 28.91375732 214.06335449 C28.91229076 214.80150139 28.9108242 215.53964828 28.9093132 216.30016327 C29.39961745 218.8550798 30.18523805 219.72145943 32.28125 221.23828125 C34.30905345 221.68866202 34.30905345 221.68866202 36.57629395 221.62355042 C37.45327438 221.63319824 38.33025482 221.64284607 39.23381042 221.65278625 C40.67365044 221.64592049 40.67365044 221.64592049 42.14257812 221.63891602 C43.15612869 221.64589508 44.16967926 221.65287415 45.21394348 221.6600647 C48.58021244 221.68012669 51.94617636 221.67954169 55.3125 221.6796875 C57.66167015 221.69146379 60.01083283 221.70482863 62.35998535 221.7197113 C68.56694958 221.75599668 74.77384781 221.7761126 80.980896 221.79125977 C90.85799855 221.81600606 100.7349546 221.85634601 110.61192322 221.91316032 C114.03855941 221.92928084 117.46505449 221.93325017 120.89172363 221.93617249 C174.62002702 222.11348829 174.62002702 222.11348829 193.28125 239.23828125 C194.828125 241.640625 194.828125 241.640625 196.03125 244.17578125 C196.43859375 245.00980469 196.8459375 245.84382812 197.265625 246.703125 C208.20722691 274.0150467 186.75032047 317.51187335 176.28125 342.23828125 C172.78313295 350.31850725 169.08794536 358.29932717 165.28125 366.23828125 C164.87052246 367.09824707 164.45979492 367.95821289 164.03662109 368.84423828 C157.39965654 382.65543275 149.99787683 396.00427757 142.28125 409.23828125 C141.7773877 410.10630371 141.27352539 410.97432617 140.75439453 411.86865234 C132.74099532 425.58765437 124.0167058 438.82757492 115.21875 452.05078125 C114.67602448 452.86804688 114.13329895 453.6853125 113.5741272 454.52734375 C105.74508466 466.29937062 97.62875723 477.82888291 89.28125 489.23828125 C88.58523682 490.19581299 87.88922363 491.15334473 87.17211914 492.13989258 C75.16824761 508.64458094 62.64551828 524.71142127 49.70947266 540.49414062 C48.42120352 542.06737049 47.13802275 543.64476373 45.85546875 545.22265625 C40.09093304 552.30801808 34.20621668 559.28709485 28.28125 566.23828125 C27.74435547 566.86831055 27.20746094 567.49833984 26.65429688 568.14746094 C25.01053955 570.07479044 23.36506725 572.00063815 21.71875 573.92578125 C21.20594482 574.52624268 20.69313965 575.1267041 20.16479492 575.74536133 C18.25622769 577.97271938 16.3562139 580.16331735 14.28125 582.23828125 C10.74339862 581.88719002 10.14267124 581.09010396 7.57421875 578.34375 C6.52806825 577.04655056 5.49372929 575.73977315 4.46875 574.42578125 C3.90470459 573.71655518 3.34065918 573.0073291 2.75952148 572.27661133 C-4.24964213 563.40358413 -10.99435484 554.32772367 -17.71875 545.23828125 C-18.31864746 544.4292334 -18.91854492 543.62018555 -19.53662109 542.78662109 C-23.61555513 537.28379257 -27.67326713 531.76573781 -31.71875 526.23828125 C-32.25709473 525.50432129 -32.79543945 524.77036133 -33.35009766 524.01416016 C-42.43026844 511.61756116 -51.13330013 498.98153541 -59.71875 486.23828125 C-60.31333008 485.35736816 -60.90791016 484.47645508 -61.52050781 483.56884766 C-65.62328079 477.4826524 -69.68778235 471.37226425 -73.71875 465.23828125 C-74.30543457 464.34641113 -74.89211914 463.45454102 -75.49658203 462.53564453 C-82.14457687 452.38488419 -88.50383754 442.12778688 -94.34375 431.48828125 C-94.82859863 430.60793213 -95.31344727 429.72758301 -95.81298828 428.82055664 C-105.03218985 411.70267142 -105.03218985 411.70267142 -103.71875 403.23828125 C-88.79406543 388.59049249 -57.47846894 390.95316803 -38.28125 390.86328125 C-37.38432434 390.85533539 -36.48739868 390.84738953 -35.56329346 390.83920288 C-2.40001308 390.61368742 -2.40001308 390.61368742 7.91796875 399.67578125 C10.31655259 402.42487448 10.39874499 405.06060506 10.34716797 408.53857422 C10.33740936 409.40312225 10.32765076 410.26767029 10.31759644 411.15841675 C10.30302399 412.08969391 10.28845154 413.02097107 10.2734375 413.98046875 C10.25591928 415.95311984 10.23901118 417.92577642 10.22265625 419.8984375 C10.19170182 423.00812949 10.15618644 426.1175476 10.10986328 429.22705078 C10.06748592 432.22822479 10.04407134 435.22907703 10.0234375 438.23046875 C10.00481659 439.15769745 9.98619568 440.08492615 9.9670105 441.04025269 C9.94757784 445.93937981 10.05721669 449.27122831 13.28125 453.23828125 C15.99562679 455.37100587 17.32951833 455.23574081 20.84375 455.05078125 C24.777945 454.12415417 24.777945 454.12415417 27.28125 451.23828125 C28.45888337 447.70538115 28.41554271 444.89794972 28.42651367 441.16821289 C28.42987228 440.45243576 28.4332309 439.73665863 28.43669128 438.99919128 C28.44619285 436.63225572 28.44814394 434.26539095 28.44921875 431.8984375 C28.45243168 430.25320913 28.45579578 428.60798106 28.45930481 426.9627533 C28.46529395 423.51365496 28.46714491 420.06458168 28.46655273 416.61547852 C28.46645108 412.19577814 28.48010777 407.77623829 28.49732494 403.35657597 C28.50844249 399.95852419 28.51047202 396.56051127 28.50994301 393.16244316 C28.51112332 391.5329578 28.51554798 389.90347145 28.52327538 388.27400398 C28.53307115 385.9951362 28.53019907 383.71661753 28.52416992 381.43774414 C28.52559494 380.14107315 28.52701996 378.84440216 28.52848816 377.50843811 C28.2969026 374.44531423 28.00499617 372.74283587 26.28125 370.23828125 C23.4990774 368.84719495 21.13989293 369.01837459 18.02587891 368.91967773 C17.0441099 368.88818603 17.0441099 368.88818603 16.04250717 368.85605812 C13.82274541 368.78813966 11.60287202 368.72920298 9.3828125 368.671875 C8.60256336 368.65057463 7.82231422 368.62927425 7.01842117 368.60732841 C-7.57379287 368.21939604 -22.16122309 368.17452727 -36.7578125 368.2109375 C-37.83717827 368.21352947 -38.91654404 368.21612144 -40.02861786 368.21879196 C-50.09155952 368.2451016 -60.1544317 368.28481511 -70.21728516 368.33422852 C-75.79603999 368.36106859 -81.37475635 368.37805718 -86.95356369 368.38909721 C-89.04979292 368.39525571 -91.14601492 368.40519522 -93.24220657 368.4191761 C-96.15322093 368.43849821 -99.0640276 368.4452998 -101.97509766 368.44946289 C-103.23894287 368.46260529 -103.23894287 368.46260529 -104.52832031 368.47601318 C-114.91321203 368.45914973 -123.62157109 366.78616476 -131.453125 359.66015625 C-158.95242299 330.64713544 -170.77475908 281.51888675 -179.59375 243.48828125 C-179.86227783 242.33211304 -179.86227783 242.33211304 -180.13623047 241.15258789 C-180.71301781 238.52185476 -181.22459805 235.88590207 -181.71875 233.23828125 C-181.90457138 232.26199768 -181.90457138 232.26199768 -182.09414673 231.26599121 C-184.42312785 218.78772275 -185.24855688 206.66949472 -185.15625 193.98828125 C-185.15320862 193.09541412 -185.15016724 192.202547 -185.14703369 191.28262329 C-185.07666644 177.27093898 -184.24678799 163.85770567 -180.71875 150.23828125 C-180.51507813 149.41279785 -180.31140625 148.58731445 -180.1015625 147.73681641 C-169.68264405 106.40683202 -144.32765097 68.36898686 -110.71875 42.23828125 C-110.17508789 41.81289063 -109.63142578 41.3875 -109.07128906 40.94921875 C-78.40655214 17.1278899 -39.26040449 0.34040095 0 0 Z " fill="#F47C2B" transform="translate(184.71875,-0.23828125)"/>
<path d="M0 0 C4.62 0 9.24 0 14 0 C14.75337646 1.58977661 14.75337646 1.58977661 15.52197266 3.21166992 C17.88836877 8.20422057 20.2563813 13.19600348 22.625 18.1875 C23.05661438 19.09713501 23.48822876 20.00677002 23.93292236 20.94396973 C29.37056761 32.40048661 34.83941522 43.84050472 40.375 55.25 C48.8410536 72.71362491 56.99166128 90.3220065 65 108 C65.17837402 107.44393066 65.35674805 106.88786133 65.54052734 106.31494141 C72.75306864 83.97775857 80.80310699 61.94283854 88.79405212 39.87538147 C90.99798554 33.78524404 93.18692787 27.69015271 95.3515625 21.5859375 C95.5920784 20.90826828 95.8325943 20.23059906 96.08039856 19.53239441 C97.1476458 16.52359576 98.2116206 13.51369149 99.27124023 10.50219727 C99.62645752 9.49987061 99.9816748 8.49754395 100.34765625 7.46484375 C100.64679932 6.615271 100.94594238 5.76569824 101.25415039 4.89038086 C102 3 102 3 103 2 C104.77991924 1.90629376 106.56356739 1.88255729 108.34594727 1.88647461 C110.05760826 1.88658791 110.05760826 1.88658791 111.80384827 1.88670349 C113.0454924 1.89186478 114.28713654 1.89702606 115.56640625 1.90234375 C117.46204567 1.90446617 117.46204567 1.90446617 119.39598083 1.90663147 C122.76124889 1.91129418 126.1264499 1.9202852 129.49169922 1.93133545 C132.9234967 1.94155154 136.35530109 1.94612951 139.78710938 1.95117188 C146.52475824 1.9622262 153.26237525 1.9789829 160 2 C161 4 161 4 160.58494568 5.72822571 C160.32931351 6.42804062 160.07368134 7.12785553 159.81030273 7.84887695 C159.51997665 8.65533157 159.22965057 9.46178619 158.93052673 10.29267883 C158.43704491 11.62700203 158.43704491 11.62700203 157.93359375 12.98828125 C157.42240746 14.39855843 157.42240746 14.39855843 156.90089417 15.83732605 C155.75337428 18.99829024 154.59528691 22.15528339 153.4375 25.3125 C152.62224502 27.55309382 151.80780887 29.79398572 150.99414062 32.03515625 C149.24782082 36.84312844 147.49784163 41.64974739 145.74560547 46.45556641 C142.99248334 54.01007887 140.26101547 61.57233272 137.53515625 69.13671875 C137.30817739 69.76656174 137.08119854 70.39640472 136.84734154 71.04533386 C135.92634904 73.6011892 135.00548023 76.15708903 134.08481503 78.71306229 C132.45315607 83.24289298 130.82015029 87.77223625 129.1862793 92.30126953 C128.95466504 92.94329945 128.72305079 93.58532936 128.48441792 94.24681473 C128.01839358 95.53861296 127.55236759 96.8304106 127.08633995 98.12220764 C121.96871199 112.30865312 116.8577061 126.49747945 111.75 140.6875 C111.38949554 141.6889505 111.02899109 142.690401 110.65756226 143.72219849 C106.89046438 154.18697059 103.12474459 164.65223662 99.36166382 175.11845398 C97.73657149 179.63799686 96.11092915 184.15734181 94.48522949 188.67666626 C93.71957207 190.80561548 92.95417927 192.9346599 92.18908691 195.06381226 C89.80014238 201.71190017 87.40555626 208.35790346 85 215 C84.49409332 216.39717255 84.49409332 216.39717255 83.97796631 217.8225708 C83.00313839 220.50930881 82.02393494 223.19440417 81.04296875 225.87890625 C80.60263054 227.09283302 80.60263054 227.09283302 80.15339661 228.33128357 C78.11556039 233.88443961 78.11556039 233.88443961 77 235 C74.64686445 235.07271741 72.29166332 235.08370868 69.9375 235.0625 C68.64714844 235.05347656 67.35679687 235.04445313 66.02734375 235.03515625 C64.52880859 235.01775391 64.52880859 235.01775391 63 235 C53.20291361 214.37699256 43.43707083 193.74213304 33.859375 173.01611328 C32.06437954 169.1356321 30.26130231 165.25892838 28.45765686 161.38246155 C26.74889694 157.70959561 25.04185305 154.03593322 23.33493042 150.36221313 C22.49992831 148.56598232 21.66427687 146.77005318 20.82791138 144.97445679 C16.05088873 134.71661109 11.37250119 124.43772207 7 114 C6.575979 114.92474121 6.15195801 115.84948242 5.71508789 116.80224609 C2.20249722 124.44270622 -1.46824684 131.98918477 -5.25 139.5 C-8.88974843 146.7356519 -12.46250762 153.99630139 -15.9375 161.3125 C-22.07414901 174.23151832 -28.36641336 187.07411766 -34.65600586 199.91918945 C-35.48184584 201.60746835 -36.30745035 203.29586245 -37.1328125 204.984375 C-37.53470291 205.80640915 -37.93659332 206.6284433 -38.35066223 207.47538757 C-41.70216681 214.3493811 -44.97873145 221.25780776 -48.21463013 228.18695068 C-50.89355476 233.89355476 -50.89355476 233.89355476 -52 235 C-54.35313555 235.07271741 -56.70833668 235.08370868 -59.0625 235.0625 C-60.35285156 235.05347656 -61.64320313 235.04445313 -62.97265625 235.03515625 C-64.47119141 235.01775391 -64.47119141 235.01775391 -66 235 C-75.55026487 209.25504461 -85.0299159 183.48489186 -94.4375 157.6875 C-94.80510374 156.67946886 -94.80510374 156.67946886 -95.18013382 155.65107346 C-95.5490027 154.63957167 -95.5490027 154.63957167 -95.92532349 153.6076355 C-97.4070971 149.5443586 -98.88899669 145.48112768 -100.37109375 141.41796875 C-100.612922 140.75498716 -100.85475025 140.09200558 -101.10390663 139.40893364 C-105.71627119 126.76538274 -110.35317843 114.1309252 -115 101.5 C-122.94751951 79.89686363 -130.84453431 58.27541885 -138.73052883 36.64976406 C-139.69523282 34.00438987 -140.66017795 31.35910367 -141.62513924 28.71382332 C-142.28801453 26.89627038 -142.95046398 25.07856216 -143.61289978 23.260849 C-144.01577713 22.15632889 -144.41865448 21.05180878 -144.83374023 19.91381836 C-145.20626923 18.88908417 -145.57879822 17.86434998 -145.96261597 16.80856323 C-146.87415321 14.34071149 -147.82837235 11.89478742 -148.79321289 9.44750977 C-150 6 -150 6 -150 2 C-129.87 2 -109.74 2 -89 2 C-83.37556248 15.49865005 -83.37556248 15.49865005 -81.49560547 20.76123047 C-80.85871292 22.53661697 -80.85871292 22.53661697 -80.20895386 24.34786987 C-79.76167259 25.60429989 -79.3144179 26.86073937 -78.8671875 28.1171875 C-78.38532347 29.46317226 -77.90314812 30.8090456 -77.42068481 32.15481567 C-76.15644427 35.68336098 -74.89568619 39.21313938 -73.63592529 42.74328613 C-71.65068386 48.30489216 -69.66074364 53.8648196 -67.67005157 59.42447662 C-67.17759155 60.79983368 -66.68525597 62.1752353 -66.19304657 63.55068207 C-60.87848318 78.39766994 -55.4538573 93.20367885 -50 108 C-49.52111328 106.83799072 -49.04222656 105.67598145 -48.54882812 104.47875977 C-43.84372142 93.1383554 -38.80744013 82.00681913 -33.5 70.9375 C-32.71775772 69.29752221 -31.93603002 67.65729888 -31.15478516 66.0168457 C-29.95612633 63.49993761 -28.75722741 60.98314868 -27.55679321 58.46708679 C-23.4646436 49.88870746 -19.41694891 41.28961838 -15.375 32.6875 C-14.74287876 31.34299867 -14.11071846 29.9985157 -13.47851562 28.65405273 C-12.27548228 26.09548746 -11.07271029 23.53679957 -9.87011719 20.97802734 C-6.58269545 13.98412062 -3.29102356 6.99221236 0 0 Z " fill="#F47C2B" transform="translate(873,178)"/>
<path d="M0 0 C1.58579809 1.36930689 3.14699688 2.76742709 4.6875 4.1875 C5.18217773 4.63061523 5.67685547 5.07373047 6.18652344 5.53027344 C7.77002065 6.95785708 9.32572106 8.41041071 10.875 9.875 C11.81730469 10.76574219 12.75960938 11.65648437 13.73046875 12.57421875 C15.6875 15.1875 15.6875 15.1875 15.91015625 17.61328125 C14.05863873 21.51152422 11.14710115 23.86525124 7.9375 26.6875 C0.81804622 33.13888411 -6.04190795 39.81220376 -12.8125 46.625 C-13.760073 47.57684098 -14.70766376 48.52866429 -15.65527344 49.48046875 C-17.87647044 51.71405622 -20.09563336 53.94961581 -22.3125 56.1875 C-25.53010709 54.66616982 -27.47293577 53.14071424 -29.875 50.5 C-41.35758444 38.86966171 -54.87506149 34.85921922 -70.875 34.6875 C-85.92905367 34.8491832 -99.83208852 38.97273536 -111.125 49.4375 C-126.33813414 66.05720129 -129.32811779 85.71015098 -128.5078125 107.33544922 C-127.43365143 123.02088618 -120.17450206 137.20355329 -108.81103516 147.88916016 C-93.54658867 161.11436811 -72.97101031 163.05894131 -53.69140625 161.74609375 C-45.68855829 161.03598802 -38.09551479 159.14907283 -30.3125 157.1875 C-29.9825 150.2575 -29.6525 143.3275 -29.3125 136.1875 C-46.4725 136.1875 -63.6325 136.1875 -81.3125 136.1875 C-81.3125 118.6975 -81.3125 101.2075 -81.3125 83.1875 C-54.89862079 83.14739119 -54.89862079 83.14739119 -43.68164062 83.13867188 C-36.01309522 83.13268274 -28.3445617 83.12558058 -20.67602539 83.11206055 C-14.49690559 83.10123401 -8.31779852 83.09522366 -2.13866997 83.09262276 C0.2245561 83.09076808 2.58778144 83.08714668 4.95100212 83.08176994 C8.24851896 83.07456262 11.54598247 83.07350893 14.84350586 83.07397461 C15.83108887 83.07037933 16.81867188 83.06678406 17.83618164 83.06307983 C18.72945663 83.0644545 19.62273163 83.06582916 20.54307556 83.06724548 C21.71421355 83.06586279 21.71421355 83.06586279 22.90901089 83.06445217 C24.6875 83.1875 24.6875 83.1875 25.6875 84.1875 C25.81076792 85.51958015 25.86692972 86.85796254 25.89523315 88.19543457 C25.9153949 89.05887482 25.93555664 89.92231506 25.95632935 90.81192017 C25.97315765 91.76666229 25.98998596 92.72140442 26.00732422 93.70507812 C26.02835205 94.70513885 26.04937988 95.70519958 26.07104492 96.73556519 C26.25422905 105.98384264 26.36012386 115.23340349 26.44318962 124.48307037 C26.49979277 130.69997278 26.58130977 136.9142913 26.72314453 143.12988281 C26.85963521 149.13542299 26.93203361 155.13862052 26.95984268 161.14561462 C26.98129713 163.43277656 27.0253095 165.71984497 27.092556 168.00611877 C27.58212664 185.45655302 27.58212664 185.45655302 24.41459465 190.02228737 C20.99460045 193.3842598 17.08276086 195.29944204 12.6875 197.1875 C11.30163902 197.98147166 9.92123845 198.78519518 8.55078125 199.60546875 C-14.49639652 211.09102599 -38.55132015 216.41480003 -64.25 216.4375 C-64.93813782 216.43817474 -65.62627563 216.43884949 -66.33526611 216.43954468 C-77.24999004 216.42257911 -87.68470672 215.80316897 -98.3125 213.1875 C-98.98780762 213.0318457 -99.66311523 212.87619141 -100.35888672 212.71582031 C-117.74699924 208.61535226 -134.74960991 200.88962773 -148.3125 189.1875 C-149.17875 188.45789063 -150.045 187.72828125 -150.9375 186.9765625 C-173.25084539 167.58844227 -186.67023462 140.62912766 -189.3125 111.1875 C-190.86620114 83.70805693 -186.66061871 59.2989478 -173.3125 35.1875 C-172.76851562 34.20007813 -172.22453125 33.21265625 -171.6640625 32.1953125 C-157.93490324 9.09014204 -133.55917656 -8.45380189 -107.7421875 -15.38671875 C-72.82056958 -24.11185806 -29.77562738 -22.95498603 0 0 Z " fill="#F47C2B" transform="translate(1708.3125,192.8125)"/>
<path d="M0 0 C10.013058 8.94642066 10.013058 8.94642066 11 15 C10.50769897 15.42124649 10.01539795 15.84249298 9.50817871 16.27650452 C4.70242819 20.42893262 0.12737103 24.73744489 -4.34375 29.24609375 C-4.99831177 29.90207047 -5.65287354 30.55804718 -6.32727051 31.23390198 C-8.38723823 33.29940145 -10.44367366 35.36837595 -12.5 37.4375 C-13.9086205 38.85114434 -15.31747267 40.26455786 -16.7265625 41.67773438 C-20.15372133 45.11583149 -23.57772019 48.55704656 -27 52 C-30.24513786 50.46764372 -32.20082321 48.91143665 -34.625 46.25 C-44.92179644 35.74384171 -58.57190273 30.98163396 -73.08007812 30.75830078 C-81.46017319 30.73162258 -89.13381298 30.76025995 -97 34 C-97.98097656 34.4021875 -98.96195313 34.804375 -99.97265625 35.21875 C-110.94819677 40.21393911 -119.02813835 47.54924211 -125 58 C-125.36609375 58.59941406 -125.7321875 59.19882812 -126.109375 59.81640625 C-132.19769838 70.65830519 -133.37165819 81.99117121 -133.4375 94.1875 C-133.44749023 95.26757324 -133.45748047 96.34764648 -133.46777344 97.46044922 C-133.29336342 113.82758337 -127.86863854 128.97720522 -116.375 140.8203125 C-102.56124112 153.49807148 -85.13763349 158.55631474 -66.65307617 157.93530273 C-65.37074097 157.87451538 -65.37074097 157.87451538 -64.0625 157.8125 C-62.71345581 157.75074585 -62.71345581 157.75074585 -61.3371582 157.68774414 C-52.2440868 157.15079257 -43.82552404 155.22431907 -35 153 C-34.67 146.07 -34.34 139.14 -34 132 C-51.16 132 -68.32 132 -86 132 C-86 114.51 -86 97.02 -86 79 C-59.58612079 78.95989119 -59.58612079 78.95989119 -48.36914062 78.95117188 C-40.70059522 78.94518274 -33.0320617 78.93808058 -25.36352539 78.92456055 C-19.18440559 78.91373401 -13.00529852 78.90772366 -6.82616997 78.90512276 C-4.4629439 78.90326808 -2.09971856 78.89964668 0.26350212 78.89426994 C3.56101896 78.88706262 6.85848247 78.88600893 10.15600586 78.88647461 C11.14358887 78.88287933 12.13117188 78.87928406 13.14868164 78.87557983 C14.04195663 78.8769545 14.93523163 78.87832916 15.85557556 78.87974548 C17.02671355 78.87836279 17.02671355 78.87836279 18.22151089 78.87695217 C20 79 20 79 21 80 C21.12326792 81.33208015 21.17942972 82.67046254 21.20773315 84.00793457 C21.2278949 84.87137482 21.24805664 85.73481506 21.26882935 86.62442017 C21.28565765 87.57916229 21.30248596 88.53390442 21.31982422 89.51757812 C21.34085205 90.51763885 21.36187988 91.51769958 21.38354492 92.54806519 C21.56672905 101.79634264 21.67262386 111.04590349 21.75568962 120.29557037 C21.81229277 126.51247278 21.89380977 132.7267913 22.03564453 138.94238281 C22.17213521 144.94792299 22.24453361 150.95112052 22.27234268 156.95811462 C22.29379713 159.24527656 22.3378095 161.53234497 22.405056 163.81861877 C22.89418577 181.2533388 22.89418577 181.2533388 19.73710251 185.83126259 C16.32067287 189.20614801 12.40278051 191.11504441 8 193 C6.4081318 193.86811842 4.82054734 194.74427595 3.2421875 195.63671875 C1.79398197 196.33611033 0.33809633 197.01981973 -1.125 197.6875 C-1.92067383 198.05633301 -2.71634766 198.42516602 -3.53613281 198.80517578 C-33.61743524 212.35770603 -70.75341688 217.17363858 -103 209 C-104.19858643 208.70198486 -104.19858643 208.70198486 -105.42138672 208.39794922 C-127.78796347 202.665682 -146.52867997 192.2189739 -163 176 C-164.17175781 174.86498047 -164.17175781 174.86498047 -165.3671875 173.70703125 C-188.10190789 150.20369932 -194.50912221 118.6326026 -194.2109375 87.078125 C-193.54677593 56.13311572 -180.57816102 27.90835407 -158.66601562 6.24584961 C-117.94072907 -32.45994793 -43.24705056 -36.58450632 0 0 Z " fill="#F47C2B" transform="translate(1426,197)"/>
<path d="M0 0 C6.1143979 5.22928539 10.6116031 11.29520958 15 18 C15.78310547 19.14275391 15.78310547 19.14275391 16.58203125 20.30859375 C17.04996094 21.01113281 17.51789063 21.71367187 18 22.4375 C18.61875 23.36369141 18.61875 23.36369141 19.25 24.30859375 C20 26 20 26 19 29 C16.89306641 30.61889648 16.89306641 30.61889648 14.1015625 32.37109375 C12.55879639 33.34864624 12.55879639 33.34864624 10.98486328 34.34594727 C9.8761084 35.03615967 8.76735352 35.72637207 7.625 36.4375 C6.49031265 37.15030804 5.35603767 37.8637729 4.22216797 38.57788086 C2.4977883 39.6632149 0.77279148 40.747479 -0.95455933 41.82807922 C-4.5877803 44.10186191 -8.1929639 46.41385142 -11.78125 48.7578125 C-12.6470166 49.31927979 -13.5127832 49.88074707 -14.40478516 50.45922852 C-16.02365249 51.5099403 -17.63810464 52.5674934 -19.24755859 53.63256836 C-19.96766113 54.09542236 -20.68776367 54.55827637 -21.4296875 55.03515625 C-22.05085449 55.4412915 -22.67202148 55.84742676 -23.31201172 56.26586914 C-25 57 -25 57 -28 56 C-29.61328125 53.453125 -29.61328125 53.453125 -31.3125 50.25 C-34.80924983 44.03847393 -38.22400272 39.70805428 -45 37 C-48.33630326 36.64522325 -48.33630326 36.64522325 -51.9375 36.6875 C-53.14277344 36.67074219 -54.34804688 36.65398437 -55.58984375 36.63671875 C-59.28156781 37.0299952 -61.10711078 37.70742411 -64 40 C-65.89133584 42.79414872 -66.29511993 45.0947325 -66.3125 48.4375 C-66.33763672 49.54931641 -66.33763672 49.54931641 -66.36328125 50.68359375 C-65.70226952 54.89843197 -63.90997084 57.3196748 -60.5234375 59.8515625 C-52.85289171 64.17219251 -45.02019879 67.82097104 -36.9375 71.3125 C-13.16774127 81.59757745 13.31642334 93.1146418 25 118 C32.49314058 137.5873324 34.19302809 159.60278694 25.48681641 179.1328125 C17.15033114 196.49052156 3.08152495 207.54207448 -14.81396484 214.23632812 C-40.98276322 223.37816432 -71.81522615 221.1833238 -97 210 C-107.40943136 204.94925505 -115.9048438 198.1932793 -124 190 C-124.66515625 189.34515625 -125.3303125 188.6903125 -126.015625 188.015625 C-129.81258383 184.01342515 -132.61466428 179.55951545 -135.375 174.8125 C-135.72143555 174.21783936 -136.06787109 173.62317871 -136.42480469 173.01049805 C-138.2953375 169.6657715 -139.34611726 166.75363819 -140 163 C-139.41847168 162.67427002 -138.83694336 162.34854004 -138.23779297 162.01293945 C-135.44874127 160.44870218 -132.66173628 158.88085856 -129.875 157.3125 C-128.84850342 156.73612793 -127.82200684 156.15975586 -126.7644043 155.56591797 C-121.36685737 152.52080981 -116.01052459 149.426465 -110.71484375 146.20703125 C-109.22718506 145.30633911 -109.22718506 145.30633911 -107.70947266 144.38745117 C-105.80296012 143.22757303 -103.90266477 142.05740291 -102.00927734 140.8762207 C-101.14641113 140.3524585 -100.28354492 139.82869629 -99.39453125 139.2890625 C-98.64018799 138.82193848 -97.88584473 138.35481445 -97.10864258 137.87353516 C-95 137 -95 137 -92.83227539 137.21582031 C-89.99420852 138.43045999 -89.15095716 140.49576864 -87.625 143.125 C-80.95072086 154.03243716 -73.42863521 161.17404126 -60.69921875 164.53125 C-52.07074828 166.02968192 -43.01588852 165.79150034 -35 162 C-31.7452069 159.27660169 -29.31099325 157.15333304 -28.69140625 152.86328125 C-28.62759766 151.60064453 -28.62759766 151.60064453 -28.5625 150.3125 C-28.50191406 149.48363281 -28.44132813 148.65476562 -28.37890625 147.80078125 C-29.35186392 143.41329288 -31.60867761 140.88381603 -35 138 C-38.77664476 135.69737973 -42.72002188 133.87659616 -46.75 132.0625 C-47.86020508 131.54598877 -48.97041016 131.02947754 -50.11425781 130.49731445 C-56.62481699 127.4828711 -63.18231158 124.57486297 -69.75 121.6875 C-90.75704312 112.44327853 -109.93703576 100.58963238 -120 79 C-127.16058869 58.58470458 -127.32997105 37.62273964 -118.4375 17.75 C-109.0349705 0.36240775 -93.04969899 -9.22374822 -74.73828125 -15.03515625 C-49.02199375 -21.70463974 -20.77574969 -16.3888384 0 0 Z " fill="#F47C2B" transform="translate(649,190)"/>
<path d="M0 0 C8.24064484 -0.2088764 16.48017782 -0.36860936 24.72281837 -0.46630955 C28.5507034 -0.51321163 32.37677319 -0.57677372 36.20361328 -0.67895508 C39.89961823 -0.7770211 43.59388233 -0.83061017 47.2910881 -0.85389519 C48.69869782 -0.87047844 50.10621595 -0.90286737 51.5130806 -0.95157051 C62.49821722 -1.31660072 62.49821722 -1.31660072 66.12284851 1.86108398 C67.69961427 4.17664694 68.87643589 6.43768932 70 9 C70.58080322 10.00434082 71.16160645 11.00868164 71.76000977 12.04345703 C72.23237061 12.93919434 72.70473145 13.83493164 73.19140625 14.7578125 C74.00919556 16.29562378 74.00919556 16.29562378 74.84350586 17.86450195 C75.41077393 18.94046631 75.97804199 20.01643066 76.5625 21.125 C81.06874169 29.59338978 85.66394538 37.99205232 90.4375 46.3125 C95.51648144 55.2093713 100.34153018 64.22230188 105.0625 73.3125 C105.38241913 73.92501617 105.70233826 74.53753235 106.0319519 75.16860962 C109.75624295 82.31113672 113.20409687 89.44078646 116 97 C116.36609375 96.195625 116.7321875 95.39125 117.109375 94.5625 C124.83819589 77.77991749 133.09875583 61.27283403 142.05273438 45.11035156 C147.98313685 34.33794085 153.5363188 23.36878233 159.12158203 12.41479492 C159.50350204 11.66725952 159.88542206 10.91972412 160.27891541 10.14953613 C161.00397689 8.72987331 161.72732246 7.30933248 162.44874573 5.88781738 C164.88806772 1.11193228 164.88806772 1.11193228 166 0 C167.8718094 -0.09386381 169.7471806 -0.11743804 171.62133789 -0.11352539 C173.42309227 -0.11341209 173.42309227 -0.11341209 175.26124573 -0.11329651 C176.5685112 -0.10813522 177.87577667 -0.10297394 179.22265625 -0.09765625 C180.56644132 -0.09579198 181.91022707 -0.09436812 183.25401306 -0.09336853 C186.79682277 -0.08954402 190.3395917 -0.07971432 193.88238525 -0.06866455 C197.49515227 -0.05844899 201.10792584 -0.0538706 204.72070312 -0.04882812 C211.8138188 -0.03809198 218.90690674 -0.02101636 226 0 C225.29177063 4.83653803 224.04531379 8.28404281 221.7109375 12.6015625 C221.37603302 13.22678802 221.04112854 13.85201355 220.69607544 14.4961853 C219.59701004 16.54352327 218.48605645 18.5841485 217.375 20.625 C216.59878258 22.06596118 215.82340343 23.50737421 215.04882812 24.94921875 C213.46633603 27.89206003 211.87929478 30.83237074 210.28808594 33.77050781 C207.61145615 38.71415049 204.95750238 43.66973907 202.30517578 48.62646484 C201.09373808 50.89041483 199.88115791 53.15375383 198.66748047 55.41650391 C193.9214254 64.26522938 189.2066261 73.13025895 184.5 82 C173.84943516 102.06955852 173.84943516 102.06955852 169.53071594 110.08544922 C168.60303862 111.82290442 167.68764377 113.56691505 166.77629089 115.31298828 C163.7439854 121.07214211 160.657172 126.62574627 157.04907227 132.05273438 C144.60372749 151.49985115 143.93935333 168.981518 144.50646973 191.61688232 C144.61819283 196.86725968 144.61399466 202.11881929 144.63051605 207.37019348 C144.66764944 215.25101527 144.84660687 223.11675799 145 231 C125.86 231 106.72 231 87 231 C87.10183594 225.97136719 87.20367188 220.94273437 87.30859375 215.76171875 C87.33975669 212.51196825 87.36631353 209.26339872 87.37695312 206.01367188 C87.39414045 200.89171037 87.42531479 195.77349997 87.55883789 190.65307617 C88.13050141 167.79749829 86.19003974 152.16669005 72.98733521 132.99551392 C69.47150044 127.69608988 66.52779422 122.08886793 63.5 116.5 C62.25530009 114.2470143 61.00266709 111.99857714 59.75 109.75 C37.25 69.25 37.25 69.25 35.37402344 65.87304688 C34.12749987 63.62943437 32.88075607 61.3859442 31.63378906 59.14257812 C28.78016101 54.00813602 25.92829204 48.87275403 23.08506775 43.73254395 C21.47450431 40.82107203 19.86224708 37.91053997 18.25 35 C17.32272095 33.32454102 17.32272095 33.32454102 16.37670898 31.61523438 C12.08617878 23.8875959 7.69935011 16.221589 3.14746094 8.64453125 C0 3.3236504 0 3.3236504 0 0 Z " fill="#F47C2B" transform="translate(1774,175)"/>
<path d="M0 0 C1.13787964 -0.00315216 2.27575928 -0.00630432 3.44812012 -0.009552 C4.6866272 -0.00752777 5.92513428 -0.00550354 7.20117188 -0.00341797 C8.46255981 -0.00437469 9.72394775 -0.00533142 11.02355957 -0.00631714 C13.69689325 -0.00699922 16.37013624 -0.00564076 19.04345703 -0.00097656 C22.47698878 0.00472073 25.91044237 0.00144152 29.34397125 -0.00454903 C32.6088743 -0.00902309 35.87376781 -0.0058943 39.13867188 -0.00341797 C40.37717896 -0.0054422 41.61568604 -0.00746643 42.89172363 -0.009552 C44.02960327 -0.00639984 45.16748291 -0.00324768 46.33984375 0 C47.34720581 0.00079559 48.35456787 0.00159119 49.39245605 0.00241089 C51.66992188 0.12939453 51.66992188 0.12939453 52.66992188 1.12939453 C52.76790489 4.08768421 52.79983803 7.02263565 52.79017639 9.9813385 C52.79103082 10.92140997 52.79188524 11.86148144 52.79276556 12.83003992 C52.79442323 16.0054459 52.78889431 19.18079999 52.78344727 22.35620117 C52.78316543 24.6223297 52.78332306 26.88845832 52.78388977 29.15458679 C52.78417789 35.32789235 52.77827891 41.50117866 52.77131581 47.67447972 C52.76508459 54.11806342 52.76447866 60.56164752 52.76329041 67.00523376 C52.76053069 77.82730484 52.75427514 88.64936798 52.74536133 99.47143555 C52.73618795 110.62019821 52.72910675 121.76895894 52.72485352 132.91772461 C52.72459079 133.60447087 52.72432807 134.29121713 52.72405738 134.99877388 C52.72275238 138.44383962 52.72148867 141.88890538 52.72024548 145.33397114 C52.70987198 173.93245136 52.6914332 202.53092036 52.66992188 231.12939453 C33.19992187 231.12939453 13.72992187 231.12939453 -6.33007812 231.12939453 C-6.3521048 201.84577589 -6.37057616 172.5621625 -6.38114345 143.27853769 C-6.38239423 139.82493332 -6.38368855 136.37132896 -6.38500977 132.91772461 C-6.38527208 132.23014552 -6.38553439 131.54256644 -6.38580465 130.83415162 C-6.39016139 119.68653285 -6.39804896 108.53891921 -6.40723092 97.39130349 C-6.41656734 85.96122315 -6.42205881 74.53114698 -6.42416662 63.10106272 C-6.42547416 56.6774323 -6.42856274 50.25381354 -6.43580818 43.83018684 C-6.44256439 37.7917316 -6.44469591 31.75329288 -6.44318581 25.71483421 C-6.44346232 23.49153682 -6.44546979 21.2682389 -6.4492836 19.04494476 C-6.45421462 16.02372194 -6.45307861 13.00256261 -6.45033264 9.9813385 C-6.45324548 9.08933323 -6.45615832 8.19732797 -6.45915943 7.27829224 C-6.44112929 0.00508707 -6.44112929 0.00508707 0 0 Z " fill="#F47C2B" transform="translate(1103.330078125,174.87060546875)"/>
</svg>
